<?xml version="1.0" encoding="utf-8"?>
<!-- Generator: Adobe Illustrator 16.0.4, SVG Export Plug-In . SVG Version: 6.00 Build 0)  -->
<!DOCTYPE svg PUBLIC "-//W3C//DTD SVG 1.1//EN" "http://www.w3.org/Graphics/SVG/1.1/DTD/svg11.dtd">
<svg version="1.1" id="Layer_1" xmlns="http://www.w3.org/2000/svg" xmlns:xlink="http://www.w3.org/1999/xlink" x="0px" y="0px"
	 width="74px" height="140px" viewBox="8 45.5 74 140" enable-background="new 8 45.5 74 140" xml:space="preserve">
<g>
	<g>
		<g>
			<polygon fill="#9B3535" points="8,45.2 82,45.2 82,158.667 8,185.8 			"/>
		</g>
	</g>
</g>
<g>
	<g>
		<g>
			<g>
				<g>
					<defs>
						<polyline id="SVGID_1_" points="31.87,80.203 31.87,106.7 40.321,106.7 40.321,110.753 27.412,110.753 27.412,80.203 
							31.87,80.203 						"/>
					</defs>
					<clipPath id="SVGID_2_">
						<use xlink:href="#SVGID_1_"  overflow="visible"/>
					</clipPath>
					<rect x="23.605" y="76.396" clip-path="url(#SVGID_2_)" fill="#FFFFFF" width="20.523" height="38.164"/>
				</g>
			</g>
		</g>
	</g>
	<g>
		<g>
			<g>
				<g>
					<defs>
						<path id="SVGID_3_" d="M31.75,127.773h1.377c4.108,0,6.162-1.559,6.162-4.681c0-2.923-1.999-4.382-5.995-4.382H31.75
							L31.75,127.773 M37.146,131.049l8.897,12.174h-5.304l-8.21-11.694h-0.78v11.694h-4.338v-28.565h5.082
							c3.797,0,6.539,0.711,8.228,2.128c1.863,1.58,2.792,3.664,2.792,6.254c0,2.023-0.583,3.76-1.748,5.219
							C40.598,129.712,39.058,130.642,37.146,131.049"/>
					</defs>
					<clipPath id="SVGID_4_">
						<use xlink:href="#SVGID_3_"  overflow="visible"/>
					</clipPath>
					<rect x="23.605" y="110.851" clip-path="url(#SVGID_4_)" fill="#FFFFFF" width="26.245" height="36.179"/>
				</g>
			</g>
		</g>
	</g>
	<g>
		<g>
			<g>
				<g>
					<defs>
						<path id="SVGID_5_" d="M52.95,139.154h2.68c1.96,0,3.399-0.384,4.32-1.148c0.967-0.827,1.451-1.875,1.451-3.143
							c0-1.234-0.467-2.271-1.396-3.109c-0.904-0.828-2.524-1.24-4.86-1.24h-2.193L52.95,139.154L52.95,139.154z M52.95,126.906
							h1.358c1.611,0,2.796-0.354,3.545-1.064c0.752-0.708,1.127-1.755,1.127-3.135c0-1.345-0.387-2.363-1.155-3.061
							c-0.771-0.698-1.888-1.047-3.352-1.047H52.95V126.906L52.95,126.906z M48.612,143.207V114.64h4.316
							c1.925,0,3.455,0.15,4.598,0.444c1.155,0.296,2.129,0.795,2.925,1.498c0.808,0.728,1.444,1.636,1.917,2.718
							c0.485,1.099,0.727,2.21,0.727,3.336c0,2.043-0.789,3.778-2.364,5.195c1.526,0.519,2.729,1.425,3.611,2.72
							c0.894,1.281,1.339,2.775,1.339,4.478c0,2.232-0.794,4.115-2.38,5.658c-0.958,0.952-2.028,1.609-3.22,1.979
							c-1.303,0.36-2.938,0.541-4.897,0.541H48.612z"/>
					</defs>
					<clipPath id="SVGID_6_">
						<use xlink:href="#SVGID_5_"  overflow="visible"/>
					</clipPath>
					<rect x="44.806" y="110.833" clip-path="url(#SVGID_6_)" fill="#FFFFFF" width="24.681" height="36.181"/>
				</g>
			</g>
		</g>
	</g>
	<g>
		<g>
			<g>
				<g>
					<defs>
						<path id="SVGID_7_" d="M56.167,99.762l-4.263-9.714l-4.467,9.714H56.167z M57.935,103.813H45.629l-3.202,6.939h-4.669
							L51.978,80.2l13.721,30.553h-4.75L57.935,103.813z"/>
					</defs>
					<clipPath id="SVGID_8_">
						<use xlink:href="#SVGID_7_"  overflow="visible"/>
					</clipPath>
					<rect x="33.951" y="76.394" clip-path="url(#SVGID_8_)" fill="#FFFFFF" width="35.553" height="38.167"/>
				</g>
			</g>
		</g>
	</g>
</g>
</svg>
