<?xml version="1.0" encoding="utf-8"?>
<!-- Generator: Adobe Illustrator 16.0.4, SVG Export Plug-In . SVG Version: 6.00 Build 0)  -->
<!DOCTYPE svg PUBLIC "-//W3C//DTD SVG 1.1//EN" "http://www.w3.org/Graphics/SVG/1.1/DTD/svg11.dtd">
<svg version="1.1" id="Layer_1" xmlns="http://www.w3.org/2000/svg" xmlns:xlink="http://www.w3.org/1999/xlink" x="0px" y="0px"
	 width="70px" height="75px" viewBox="10 -1 70 75" enable-background="new 10 -1 70 75" xml:space="preserve">
<g>
	<polygon fill="#9B3535" points="10,-1 80,-1 80,51 10,74 	"/>
</g>
<g>
	<path fill="#FFFFFF" d="M25.001,22.657v12.467h4.271v2.062h-6.464V22.657H25.001z"/>
	<path fill="#FFFFFF" d="M40.695,33.655h-6.219l-1.619,3.529h-2.362l7.188-15.439l6.934,15.439h-2.399L40.695,33.655z M39.8,31.594
		l-2.153-4.939l-2.258,4.939H39.8z"/>
	<path fill="#FFFFFF" d="M51.355,30.992l4.496,6.191H53.17l-4.148-5.947h-0.396v5.947h-2.192V22.657h2.567
		c1.92,0,3.306,0.361,4.159,1.082c0.939,0.804,1.41,1.864,1.41,3.181c0,1.029-0.295,1.914-0.883,2.654
		C53.098,30.312,52.32,30.785,51.355,30.992z M48.627,29.327h0.695c2.076,0,3.113-0.793,3.113-2.38c0-1.486-1.01-2.229-3.028-2.229
		h-0.78V29.327L48.627,29.327z"/>
	<path fill="#FFFFFF" d="M58.035,37.186V22.657h2.186c0.971,0,1.745,0.076,2.322,0.226c0.583,0.151,1.075,0.404,1.477,0.762
		c0.408,0.37,0.731,0.831,0.971,1.384c0.242,0.557,0.365,1.122,0.365,1.693c0,1.042-0.396,1.922-1.193,2.644
		c0.771,0.264,1.38,0.724,1.824,1.382c0.453,0.653,0.679,1.413,0.679,2.278c0,1.135-0.401,2.095-1.205,2.88
		c-0.481,0.481-1.024,0.817-1.627,1.005c-0.659,0.183-1.483,0.272-2.476,0.272L58.035,37.186L58.035,37.186z M60.227,28.895h0.688
		c0.815,0,1.412-0.18,1.792-0.541c0.379-0.361,0.568-0.893,0.568-1.596c0-0.684-0.194-1.203-0.586-1.557
		c-0.39-0.355-0.953-0.531-1.69-0.531h-0.772V28.895z M60.227,35.124h1.357c0.989,0,1.718-0.194,2.182-0.583
		c0.489-0.421,0.734-0.954,0.734-1.599c0-0.627-0.234-1.154-0.707-1.582c-0.458-0.42-1.275-0.629-2.454-0.629h-1.112V35.124
		L60.227,35.124z"/>
</g>
</svg>
