<?xml version="1.0" encoding="utf-8"?>
<!-- Generator: Adobe Illustrator 16.0.4, SVG Export Plug-In . SVG Version: 6.00 Build 0)  -->
<!DOCTYPE svg PUBLIC "-//W3C//DTD SVG 1.1//EN" "http://www.w3.org/Graphics/SVG/1.1/DTD/svg11.dtd">
<svg version="1.1" id="Layer_1" xmlns="http://www.w3.org/2000/svg" xmlns:xlink="http://www.w3.org/1999/xlink" x="0px" y="0px"
	 width="90px" height="73px" viewBox="0 0 90 73" enable-background="new 0 0 90 73" xml:space="preserve">
<g>
	<polygon fill="#9B3535" points="0,-118 90,-118 90,50 0,73 	"/>
</g>
<g>
	<g>
	</g>
</g>
<g>
	<path fill="#FFFFFF" d="M18.729,16.493v16.429h5.629v2.716H15.84V16.493H18.729z"/>
	<path fill="#FFFFFF" d="M39.411,30.987h-8.195l-2.133,4.65H25.97l9.473-20.347l9.138,20.347h-3.162L39.411,30.987z M38.232,28.271
		l-2.839-6.509l-2.976,6.509H38.232z"/>
	<path fill="#FFFFFF" d="M53.459,27.478l5.927,8.16h-3.534l-5.468-7.836h-0.521v7.836h-2.891V16.493h3.386
		c2.53,0,4.355,0.476,5.481,1.426c1.239,1.059,1.859,2.456,1.859,4.191c0,1.356-0.388,2.522-1.165,3.497
		C55.755,26.582,54.731,27.205,53.459,27.478z M49.863,25.283h0.917c2.736,0,4.105-1.045,4.105-3.136
		c0-1.959-1.332-2.938-3.992-2.938h-1.03V25.283L49.863,25.283z"/>
	<path fill="#FFFFFF" d="M62.262,35.638V16.493h2.878c1.28,0,2.301,0.1,3.062,0.298c0.769,0.199,1.417,0.533,1.946,1.004
		c0.537,0.487,0.964,1.095,1.278,1.823c0.321,0.735,0.482,1.479,0.482,2.231c0,1.373-0.524,2.534-1.573,3.485
		c1.015,0.347,1.817,0.954,2.404,1.821c0.596,0.861,0.894,1.861,0.894,3.001c0,1.496-0.53,2.761-1.587,3.796
		c-0.637,0.635-1.352,1.077-2.146,1.325c-0.868,0.24-1.955,0.36-3.262,0.36H62.262z M65.15,24.714h0.906
		c1.075,0,1.862-0.238,2.362-0.713c0.499-0.476,0.75-1.177,0.75-2.103c0-0.901-0.257-1.585-0.771-2.052
		c-0.513-0.468-1.256-0.7-2.23-0.7H65.15V24.714z M65.15,32.922h1.787c1.305,0,2.264-0.256,2.876-0.769
		c0.645-0.555,0.968-1.257,0.968-2.107c0-0.827-0.311-1.521-0.931-2.084c-0.604-0.554-1.683-0.83-3.235-0.83H65.15V32.922
		L65.15,32.922z"/>
</g>
</svg>
