<?xml version="1.0" encoding="utf-8"?>
<!-- Generator: Adobe Illustrator 16.0.4, SVG Export Plug-In . SVG Version: 6.00 Build 0)  -->
<!DOCTYPE svg PUBLIC "-//W3C//DTD SVG 1.1//EN" "http://www.w3.org/Graphics/SVG/1.1/DTD/svg11.dtd">
<svg version="1.1" id="Layer_1" xmlns="http://www.w3.org/2000/svg" xmlns:xlink="http://www.w3.org/1999/xlink" x="0px" y="0px"
	 width="70px" height="73px" viewBox="10 0 70 73" enable-background="new 10 0 70 73" xml:space="preserve">
<g>
	<polygon fill="#9B3535" points="10,0 80,0 80,50 10,73 	"/>
</g>
<g>
	<path fill="#FFFFFF" d="M25.001,21.657v12.467h4.271v2.061h-6.464V21.657H25.001z"/>
	<path fill="#FFFFFF" d="M40.695,32.655h-6.219l-1.619,3.529h-2.362l7.188-15.44l6.934,15.44h-2.399L40.695,32.655z M39.8,30.594
		l-2.154-4.939l-2.258,4.939H39.8z"/>
	<path fill="#FFFFFF" d="M51.355,29.992l4.497,6.192h-2.682l-4.149-5.947h-0.395v5.947h-2.193V21.657h2.568
		c1.92,0,3.306,0.361,4.159,1.082c0.94,0.804,1.411,1.864,1.411,3.181c0,1.029-0.295,1.914-0.884,2.654
		C53.098,29.312,52.32,29.785,51.355,29.992z M48.627,28.327h0.695c2.076,0,3.114-0.793,3.114-2.38c0-1.486-1.01-2.229-3.029-2.229
		h-0.78V28.327L48.627,28.327z"/>
	<path fill="#FFFFFF" d="M58.035,36.185V21.657h2.185c0.971,0,1.746,0.076,2.323,0.226c0.583,0.151,1.075,0.404,1.477,0.762
		c0.408,0.37,0.731,0.831,0.97,1.384c0.243,0.557,0.366,1.122,0.366,1.693c0,1.042-0.397,1.922-1.194,2.644
		c0.771,0.264,1.38,0.724,1.825,1.382c0.452,0.653,0.678,1.413,0.678,2.278c0,1.135-0.401,2.095-1.205,2.88
		c-0.482,0.481-1.025,0.817-1.627,1.005c-0.659,0.183-1.484,0.273-2.475,0.273L58.035,36.185L58.035,36.185z M60.227,27.895h0.688
		c0.815,0,1.412-0.18,1.792-0.541c0.379-0.361,0.568-0.893,0.568-1.596c0-0.684-0.194-1.203-0.585-1.557
		c-0.39-0.355-0.953-0.531-1.691-0.531h-0.772V27.895z M60.227,34.124h1.357c0.989,0,1.718-0.194,2.181-0.583
		c0.49-0.421,0.735-0.954,0.735-1.599c0-0.627-0.235-1.154-0.707-1.582c-0.458-0.42-1.276-0.629-2.454-0.629h-1.112V34.124
		L60.227,34.124z"/>
</g>
</svg>
